<?xml version="1.0" standalone="no"?>
<!DOCTYPE svg PUBLIC "-//W3C//DTD SVG 20010904//EN"
 "http://www.w3.org/TR/2001/REC-SVG-20010904/DTD/svg10.dtd">
<svg version="1.0" xmlns="http://www.w3.org/2000/svg"
 width="1080.000000pt" height="1080.000000pt" viewBox="0 0 1080.000000 1080.000000"
 preserveAspectRatio="xMidYMid meet">

<g transform="translate(0.000000,500.000000) scale(0.100000,-0.100000)"
fill="#fff" stroke="none">
<path d="M0 5400 l0 -5400 5400 0 5400 0 0 5400 0 5400 -5400 0 -5400 0 0
-5400z m5242 1381 l33 -29 1 -1269 c1 -697 5 -1289 9 -1314 13 -89 -37 -179
-102 -179 -33 0 -78 47 -92 96 -24 84 -33 558 -27 1434 5 846 14 1149 37 1217
12 39 53 73 85 73 13 0 38 -13 56 -29z m407 14 c59 -30 56 39 53 -1409 -3
-1308 -3 -1330 -23 -1357 -26 -37 -79 -48 -115 -24 -73 47 -78 135 -78 1275 1
927 11 1357 35 1444 13 46 50 86 79 86 12 0 34 -7 49 -15z m-844 -267 c59 -27
56 23 57 -1096 0 -565 0 -1044 1 -1064 3 -110 -137 -145 -186 -47 -32 67 -40
322 -34 1159 6 705 12 913 33 994 7 29 56 66 86 66 9 0 29 -5 43 -12z m1268 1
c55 -25 52 33 52 -1119 1 -640 -3 -1076 -8 -1093 -11 -31 -52 -57 -91 -57 -42
0 -83 44 -96 103 -40 188 -32 1941 10 2098 18 65 75 94 133 68z m-1684 -290
c17 -6 36 -20 41 -30 7 -12 10 -289 10 -776 0 -417 3 -770 6 -784 8 -37 -11
-68 -53 -86 -78 -32 -135 6 -155 103 -17 80 -17 1239 0 1402 13 125 20 145 60
166 33 18 50 19 91 5z m2139 -26 l24 -26 -4 -794 -3 -794 -23 -22 c-18 -16
-36 -22 -73 -22 -58 0 -86 22 -100 81 -27 110 -27 1294 1 1483 11 76 27 106
65 122 33 14 88 0 113 -28z m-2537 -289 l30 -15 -1 -482 c-1 -265 1 -490 5
-500 23 -57 -124 -89 -184 -39 -35 28 -44 153 -38 547 5 395 14 467 56 490 35
19 95 19 132 -1z m2950 0 l30 -15 -2 -483 c-1 -266 1 -488 5 -494 22 -36 -61
-80 -127 -68 -60 11 -77 33 -87 111 -20 155 -8 814 16 912 12 48 104 69 165
37z"/>
</g>
</svg>
